<svg width="3207" height="655" xmlns="http://www.w3.org/2000/svg" version="1.1">

 <g>
  <title>Layer 1</title>
  <path id="svg_1" fill="#2563EB" d="m396.12891,9.5625c9.87837,8.09764 14.95641,18.48664 16.25391,31.18359c0.41237,13.4296 -3.3458,24.32074 -12.25391,34.36329c-3.27612,3.40553 -3.27612,3.40553 -5.12891,4.89062c-0.66,0 -1.32,0 -2,0c0,10.89 0,21.78 0,33c2.89266,-0.04641 5.78532,-0.09281 8.76563,-0.14062c2.83982,-0.03131 5.67963,-0.05554 8.51953,-0.07911c1.95517,-0.01996 3.91028,-0.04714 5.86523,-0.08203c16.28716,-0.28311 29.26747,0.7896 41.84961,12.30176c5.01897,5.69795 10,13.09893 10,21c0.57978,-0.00277 1.15955,-0.00553 1.75689,-0.00838c14.16669,-0.06652 28.33335,-0.11602 42.50016,-0.14706c6.85122,-0.01541 13.70234,-0.03638 20.5535,-0.07088c6.62008,-0.03332 13.24008,-0.05057 19.86024,-0.05831c2.51717,-0.00552 5.03434,-0.01628 7.55146,-0.03256c21.47851,-0.13328 39.14312,0.41196 55.5551,15.96563c7.89642,8.35438 13.33567,19.2757 13.35687,30.88588c0.00446,1.13266 0.00892,2.26533 0.01351,3.43232c-0.00027,1.86708 -0.00027,1.86708 -0.00056,3.77189c0.0033,1.33546 0.00703,2.67092 0.01115,4.00638c0.01001,3.6733 0.01373,7.3466 0.01639,11.01992c0.0039,3.96066 0.01348,7.92132 0.02221,11.88197c0.01976,9.56763 0.02983,19.13525 0.03873,28.70289c0.00438,4.50724 0.00975,9.01447 0.01499,13.52171c0.01701,14.98653 0.0315,29.97306 0.03874,44.95959c0.00191,3.88886 0.00383,7.77771 0.00579,11.66657c0.00048,0.96654 0.00097,1.93308 0.00147,2.92891c0.00829,15.65037 0.03362,31.30066 0.06611,46.951c0.03309,16.07348 0.05108,32.14692 0.05428,48.22044c0.00216,9.02235 0.01088,18.04459 0.03646,27.06692c0.02174,7.6855 0.02974,15.37086 0.02003,23.05639c-0.00453,3.91849 -0.0027,7.83669 0.01676,11.75514c0.0177,3.59415 0.01659,7.18781 0.00111,10.78197c-0.00348,1.90171 0.0126,3.80344 0.0296,5.70508c-0.1016,13.65854 -4.54697,25.37363 -13.77489,35.51315c-10.22001,9.8099 -22.05313,14.84634 -36.15686,14.63579c-1.59757,-0.03918 -1.59757,-0.03918 -3.22742,-0.07915c-2.36745,-0.03909 -4.73492,-0.07768 -7.10239,-0.11584c-1.87041,-0.03509 -1.87041,-0.03509 -3.7786,-0.07088c-6.6533,-0.11188 -13.30728,-0.14806 -19.96129,-0.19414c-8.44534,-0.05863 -16.88798,-0.14023 -25.33155,-0.32763c-6.17906,-0.13691 -12.35517,-0.20806 -18.5358,-0.206c-3.26022,-0.00132 -6.51124,-0.04339 -9.77006,-0.14592c-15.65295,-0.68399 -15.65295,-0.68399 -29.3214,5.9171c-3.91287,3.686 -7.32633,7.68247 -10.66898,11.88446c-2.95769,3.47974 -6.39506,6.30878 -9.89175,9.22565c-1.42527,1.36584 -2.83588,2.74749 -4.21875,4.15625c-0.70511,0.71285 -1.41023,1.4257 -2.13671,2.16016c-0.7077,0.72058 -1.4154,1.44117 -2.14454,2.18359c-4.69332,4.77881 -9.43992,9.37155 -14.51757,13.74023c-3.48514,3.09371 -6.7205,6.43413 -9.98243,9.75977c-3.88283,3.95867 -7.7634,7.85058 -11.96875,11.46875c-4.40328,3.79267 -8.46112,7.88698 -12.53125,12.03125c-20.43018,20.80232 -20.43018,20.80232 -29.5,21.5c-1.57781,0.12375 -1.57781,0.12375 -3.1875,0.25c-10.81819,-0.70939 -19.79571,-5.43368 -27.21093,-13.23828c-8.74292,-10.98196 -8.89324,-23.60224 -8.79688,-36.98438c0.00374,-1.53413 0.00658,-3.06826 0.00858,-4.6024c0.00758,-4.00963 0.02718,-8.01912 0.0494,-12.0287c0.02058,-4.10276 0.02962,-8.20555 0.03968,-12.30835c0.02135,-8.02936 0.05543,-16.05861 0.09765,-24.08789c-1.38126,0.00553 -1.38126,0.00553 -2.79043,0.01117c-22.44477,0.08848 -44.88951,0.1546 -67.33442,0.19608c-10.85436,0.02059 -21.7086,0.04865 -32.56289,0.09451c-9.46471,0.03997 -18.92934,0.0657 -28.39414,0.07459c-5.00783,0.0052 -10.01541,0.01735 -15.02316,0.04657c-4.72206,0.02733 -9.44377,0.03549 -14.1659,0.02951c-1.72483,0.00109 -3.44967,0.00894 -5.17444,0.02439c-16.6762,0.14194 -30.43294,-3.08913 -43.24212,-14.53932c-16.08392,-17.44039 -14.76262,-39.49368 -14.69001,-61.72777c0.00893,-3.75393 0.00037,-7.50783 -0.00586,-11.26176c-0.00944,-7.33221 -0.00294,-14.66431 0.00926,-21.99651c0.01369,-8.5534 0.01198,-17.10677 0.00987,-25.66018c-0.00319,-15.26777 0.00843,-30.53549 0.02806,-45.80324c0.01901,-14.78908 0.02609,-29.5781 0.02051,-44.36719c-0.00607,-16.13909 -0.00586,-32.27815 0.00549,-48.41724c0.0012,-1.723 0.00241,-3.44599 0.00361,-5.16898c0.00061,-0.84756 0.00121,-1.69512 0.00183,-2.56837c0.00387,-5.95176 0.00349,-11.90351 0.00159,-17.85527c-0.00213,-7.25807 0.00315,-14.51609 0.01761,-21.77415c0.00721,-3.69785 0.01135,-7.39564 0.00676,-11.0935c-0.00487,-4.01902 0.0059,-8.03786 0.01809,-12.05686c-0.00567,-1.73029 -0.00567,-1.73029 -0.01146,-3.49552c0.05679,-10.6358 0.71153,-21.34104 5.77215,-30.87846c0.34676,-0.67072 0.69352,-1.34143 1.05078,-2.03247c6.82457,-12.5323 17.1706,-19.64314 30.42188,-23.98315c7.44418,-1.95951 14.73025,-1.96398 22.38843,-2.0022c1.84496,-0.01485 1.84496,-0.01485 3.72719,-0.03c3.35484,-0.02608 6.70966,-0.04799 10.06455,-0.068c3.51273,-0.02196 7.02541,-0.0493 10.53811,-0.07606c6.64378,-0.0498 13.28758,-0.09478 19.9314,-0.13802c7.56716,-0.04948 15.13427,-0.10436 22.70139,-0.15968c15.55872,-0.11362 31.11748,-0.22051 46.67627,-0.32292c0.25685,-0.74476 0.5137,-1.48951 0.77832,-2.25684c0.34644,-0.98258 0.69288,-1.96517 1.04981,-2.97753c0.33934,-0.97164 0.67869,-1.94327 1.02832,-2.94434c3.8002,-9.37556 11.95253,-16.58643 20.89355,-20.99707c6.84912,-2.50896 12.99136,-3.10456 20.21875,-3.01953c1.38138,0.00424 1.38138,0.00424 2.79065,0.00857c2.91367,0.01111 5.82703,0.0362 8.7406,0.06174c1.98698,0.01004 3.97396,0.01917 5.96094,0.02734c4.84648,0.02194 9.69272,0.05641 14.53906,0.09766c0.08011,-4.41232 0.10021,-8.81984 0.06714,-13.23242c-0.00306,-1.49745 0.00965,-2.99503 0.03906,-4.49219c0.36522,-8.93071 0.36522,-8.93071 -3.04248,-16.87866c-2.27143,-1.95229 -4.62736,-3.65904 -7.06372,-5.39673c-7.49002,-10.11591 -10.81982,-21.33127 -9.7539,-33.90234c2.05007,-12.93545 8.32371,-22.78001 18.18359,-31.26954c17.01273,-12.10024 39.35819,-10.25904 55.69922,1.73438z"/>
  <path stroke="#000000" id="svg_2" fill="#ffffff" d="m2184,171c27.06,0 54.12,0 82,0c0,42.57 0,85.14 0,129c45.54,0 91.08,0 138,0c0,-42.57 0,-85.14 0,-129c26.73,0 53.46,0 81,0c0,109.23 0,218.46 0,331c-26.73,0 -53.46,0 -81,0c0,-43.23 0,-86.46 0,-131c-45.54,0 -91.08,0 -138,0c0,43.23 0,86.46 0,131c-27.06,0 -54.12,0 -82,0c0,-109.23 0,-218.46 0,-331z"/>
  <path stroke="#000000" id="svg_3" fill="#ffffff" d="m2894,147c26.4,0 52.8,0 80,0c0.33,40.92 0.66,81.84 1,124c3.96,-2.97 7.92,-5.94 12,-9c3.04289,-1.74462 5.89881,-3.30753 9.0625,-4.75c0.80526,-0.37069 1.61052,-0.74137 2.44019,-1.12329c28.89312,-12.81987 63.37782,-13.58201 93.05981,-2.93921c12.13415,5.00726 23.62589,11.01764 33.4375,19.8125c1.25877,1.08088 1.25877,1.08088 2.54297,2.18359c25.97334,22.67265 40.04469,54.3645 43.14453,88.37891c2.35743,39.63431 -6.72579,76.95821 -33.271,107.24414c-20.74328,22.78246 -49.22272,36.60372 -80.04052,38.34131c-28.95777,1.0602 -55.64717,-5.01289 -79.37598,-22.14795c-0.99,-0.99 -1.98,-1.98 -3,-3c-0.33,5.94 -0.66,11.88 -1,18c-26.4,0 -52.8,0 -80,0c0,-117.15 0,-234.3 0,-355zm94.82031,187.30859c-13.56593,15.99756 -16.46874,34.32777 -14.82031,54.69141c1.97407,14.56075 8.79194,25.75575 19,36c0.81211,0.84691 0.81211,0.84691 1.64063,1.71094c10.89421,10.39902 26.73971,14.81861 41.43261,14.63867c14.3621,-0.50779 28.55795,-6.16401 38.96973,-16.18945c13.00407,-14.3538 18.78624,-31.88363 17.85937,-51.19483c-1.3596,-18.34152 -7.57269,-33.77734 -21.08593,-46.55517c-24.74207,-21.17318 -61.3063,-16.07409 -82.9961,6.89843z"/>
  <path stroke="#000000" id="svg_4" fill="#ffffff" d="m1609,171c27.72,0 55.44,0 84,0c8.03165,17.21068 8.03165,17.21068 11.20703,25.01563c0.54398,1.32353 0.54398,1.32353 1.09894,2.67381c0.77208,1.8793 1.54263,3.75923 2.31174,5.63975c2.08322,5.09268 4.17891,10.18022 6.27292,15.26847c0.42728,1.03909 0.85457,2.07818 1.29481,3.14875c4.25105,10.33104 8.55688,20.6388 12.87706,30.94109c0.36915,0.88068 0.73829,1.76136 1.11862,2.66873c1.86387,4.44666 3.72851,8.89301 5.59378,13.33908c3.7039,8.82911 7.40232,17.66052 11.1001,26.49219c0.36812,0.87909 0.73624,1.75818 1.11551,2.66391c6.44404,15.39024 12.8634,30.79069 19.27743,46.19345c5.9391,14.26144 11.88979,28.51796 17.85706,42.76764c0.36837,0.87967 0.73674,1.75935 1.11627,2.66568c2.58566,6.17419 5.1721,12.34804 7.75873,18.52182c4.81115,11.48325 9.62081,22.96711 14.42419,34.45361c2.10172,5.02523 4.20562,10.04954 6.31214,15.07276c2.34421,5.59009 4.68494,11.18162 7.0235,16.77408c0.90642,2.16587 1.81408,4.33121 2.72302,6.49603c1.2616,3.00528 2.5188,6.01237 3.77496,9.01993c0.3803,0.90301 0.76059,1.80603 1.15241,2.73642c0.34303,0.82376 0.68606,1.64752 1.03949,2.49624c0.301,0.71858 0.60201,1.43716 0.91214,2.17751c0.63815,1.77342 0.63815,1.77342 0.63815,3.77342c-29.04,0 -58.08,0 -88,0c-3.63,-9.34312 -7.26,-18.68625 -11,-28.3125c-1.72283,-4.42273 -1.72283,-4.42273 -3.48047,-8.93481c-0.90274,-2.33017 -1.80511,-4.66048 -2.70703,-6.99097c-0.47502,-1.21539 -0.95004,-2.43077 -1.43945,-3.68298c-0.44666,-1.1569 -0.89332,-2.31379 -1.35352,-3.50574c-0.39083,-1.00594 -0.78165,-2.01188 -1.18432,-3.0483c-0.83521,-2.5247 -0.83521,-2.5247 -0.83521,-5.5247c-45.87,0 -91.74,0 -139,0c-0.99,3.3 -1.98,6.6 -3,10c-0.66234,1.8823 -1.34725,3.75705 -2.06885,5.61743c-0.37694,0.97704 -0.75388,1.95407 -1.14224,2.96071c-0.39698,1.01707 -0.79396,2.03413 -1.20297,3.08202c-0.41511,1.07108 -0.83022,2.14217 -1.25791,3.24571c-0.87052,2.2436 -1.74292,4.48647 -2.61709,6.72865c-1.34351,3.4474 -2.67997,6.89746 -4.01563,10.3479c-0.84854,2.18441 -1.69749,4.36866 -2.54687,6.55274c-0.40103,1.03528 -0.80206,2.07056 -1.21524,3.13722c-0.37064,0.94866 -0.74127,1.89733 -1.12314,2.87474c-0.32627,0.8381 -0.65253,1.67619 -0.98868,2.53969c-0.82138,1.91319 -0.82138,1.91319 -1.82138,2.91319c-2.73888,0.09516 -5.45248,0.12555 -8.19165,0.11353c-0.85846,0.00014 -1.71692,0.00029 -2.6014,0.00044c-2.85156,-0.0007 -5.70306,-0.0085 -8.55461,-0.01631c-1.97155,-0.00187 -3.9431,-0.00329 -5.91465,-0.00429c-5.19995,-0.00383 -10.39987,-0.01366 -15.59981,-0.02471c-5.30182,-0.01021 -10.60364,-0.01479 -15.90546,-0.01983c-10.41082,-0.01074 -20.82162,-0.02782 -31.23242,-0.04883c3.1699,-8.54006 6.33683,-17.06746 9.89062,-25.45703c0.34183,-0.81422 0.68365,-1.62844 1.03583,-2.46733c1.10506,-2.63057 2.2143,-5.25934 3.32355,-7.88814c0.79329,-1.88658 1.58625,-3.7733 2.37891,-5.66016c1.6413,-3.9063 3.28401,-7.812 4.92773,-11.71728c3.45483,-8.2113 6.89217,-16.42991 10.3299,-24.64838c1.87302,-4.47738 3.74717,-8.95429 5.62127,-13.43121c0.37173,-0.88804 0.74345,-1.77609 1.12644,-2.69104c2.22901,-5.32487 4.45888,-10.64938 6.68942,-15.9736c8.24494,-19.68052 16.4736,-39.36768 24.67633,-59.06583c6.36146,-15.27652 12.73305,-30.54871 19.125,-45.8125c0.36837,-0.87967 0.73674,-1.75935 1.11627,-2.66568c2.9536,-7.05278 5.90826,-14.10512 8.86298,-21.15744c2.22,-5.29881 4.43969,-10.59776 6.65887,-15.89691c0.73711,-1.76008 1.47429,-3.52013 2.21155,-5.28015c4.52437,-10.80171 9.03575,-21.60873 13.53314,-32.42169c0.45946,-1.10431 0.91892,-2.20862 1.39231,-3.34639c2.2446,-5.39509 4.48774,-10.79078 6.7283,-16.18755c0.8113,-1.95095 1.62266,-3.90188 2.43408,-5.85278c0.36997,-0.8927 0.73994,-1.7854 1.12112,-2.70514c0.34288,-0.82361 0.68577,-1.64722 1.03904,-2.49579c0.29656,-0.71414 0.59313,-1.42827 0.89868,-2.16405c0.88874,-2.03703 1.88474,-4.0261 2.87866,-6.01393zm42,94c-10.10436,25.80291 -20.12337,51.63818 -30.08942,77.49477c-0.70782,1.83638 -1.41574,3.67272 -2.12365,5.50906c-0.87195,2.26209 -1.74359,4.5243 -2.61487,6.78665c-0.5838,1.51475 -0.5838,1.51475 -1.17938,3.06011c-0.33813,0.87783 -0.67626,1.75566 -1.02463,2.66009c-0.66864,1.7194 -1.3683,3.42695 -2.09259,5.12366c-1.04899,2.41417 -1.04899,2.41417 -0.87546,5.36566c27.06,0 54.12,0 82,0c-6.81063,-18.24764 -6.81063,-18.24764 -13.83203,-36.41016c-0.39928,-1.01559 -0.79857,-2.03118 -1.20995,-3.07754c-0.83315,-2.11878 -1.6671,-4.23725 -2.50184,-6.35541c-2.17817,-5.5273 -4.35017,-11.05702 -6.52259,-16.58658c-0.42522,-1.08196 -0.85044,-2.16392 -1.28854,-3.27867c-3.65924,-9.31575 -7.28829,-18.64296 -10.89505,-27.97914c-0.25238,-0.65324 -0.50477,-1.30648 -0.7648,-1.97952c-1.33009,-3.44368 -2.65858,-6.88797 -3.9852,-10.33298c-0.33,0 -0.66,0 -1,0z"/>
  <path stroke="#000000" id="svg_5" fill="#ffffff" d="m892,171c71.61,0 143.22,0 217,0c0,23.76 0,47.52 0,72c-47.85,0 -95.7,0 -145,0c-0.66,14.52 -1.32,29.04 -2,44c4.2552,-0.0348 8.51039,-0.06961 12.89453,-0.10547c3.45046,-0.01937 6.90089,-0.03561 10.35137,-0.04978c3.61062,-0.01567 7.22101,-0.0365 10.83149,-0.07107c28.74588,-0.26776 54.42823,2.10384 79.92261,16.22632c0.96293,0.50918 1.92586,1.01836 2.91797,1.54297c21.30631,12.24247 34.72106,34.61045 41.22266,57.67969c2.34593,10.31147 3.2488,20.1993 3.23437,30.77734c-0.00054,0.67709 -0.00109,1.35418 -0.00165,2.05179c-0.11851,32.23735 -11.28106,59.29959 -34.10919,82.12106c-26.10502,25.10298 -61.88939,32.42696 -96.92822,32.03809c-37.08966,-0.91454 -69.39097,-14.30761 -95.58203,-40.45313c-19.10597,-20.335 -25.55191,-46.77609 -26.75391,-73.75781c8.64574,-2.24756 17.3282,-4.16167 26.08594,-5.91797c1.3137,-0.26467 2.62739,-0.52943 3.94107,-0.79426c2.72741,-0.54904 5.45527,-1.09577 8.18344,-1.64104c3.48436,-0.69681 6.96706,-1.40161 10.44942,-2.10835c2.70161,-0.547 5.40425,-1.08874 8.10721,-1.62901c1.90504,-0.38205 3.80903,-0.76934 5.71299,-1.15673c1.16206,-0.23057 2.32412,-0.46113 3.52139,-0.69868c1.01638,-0.20414 2.03276,-0.40827 3.07993,-0.61858c3.01585,-0.44989 5.87403,-0.51178 8.91861,-0.43538c0.1049,0.85997 0.1049,0.85997 0.21191,1.7373c3.10338,25.58538 3.10338,25.58538 18.53809,45.5752c14.03051,9.50987 28.35851,12.90468 45.04297,10.03516c11.16788,-2.83764 20.74744,-8.61718 27.20703,-18.34766c5.86289,-11.69532 8.31321,-24.49182 4.875,-37.375c-3.5519,-9.91572 -9.94389,-17.08759 -19.32422,-21.875c-9.69669,-4.1405 -19.339,-5.04823 -29.79346,-5.06885c-1.18164,-0.01004 -2.36328,-0.02009 -3.58073,-0.03044c-3.87396,-0.03069 -7.74786,-0.04783 -11.6219,-0.06477c-2.69857,-0.01765 -5.39712,-0.03821 -8.09568,-0.05869c-6.3568,-0.0466 -12.71361,-0.08343 -19.07049,-0.11667c-7.2432,-0.03836 -14.48631,-0.08773 -21.72943,-0.13798c-14.8863,-0.10305 -29.77265,-0.1924 -44.65909,-0.2726c-0.05431,-11.00607 0.08012,-21.98283 0.44312,-32.98389c0.04786,-1.51172 0.09549,-3.02346 0.14291,-4.5352c0.12768,-4.04721 0.25875,-8.0943 0.39068,-12.14137c0.11042,-3.39722 0.2191,-6.7945 0.32778,-10.19178c0.25649,-8.01646 0.51573,-16.03282 0.77681,-24.04913c0.26831,-8.2394 0.53227,-16.47893 0.79406,-24.71854c0.2261,-7.11221 0.45472,-14.22434 0.68539,-21.3364c0.13722,-4.23159 0.27357,-8.46321 0.40754,-12.6949c0.12596,-3.97456 0.25509,-7.94899 0.3866,-11.92337c0.04746,-1.44988 0.09385,-2.8998 0.13903,-4.34976c0.06232,-1.99438 0.12909,-3.98862 0.19601,-5.98286c0.03595,-1.1108 0.0719,-2.2216 0.10894,-3.36607c0.26543,-4.91805 0.75522,-9.82175 1.20113,-14.72673z"/>
  <path stroke="#000000" id="svg_6" fill="#ffffff" d="m1341,167c0.9813,0.20883 0.9813,0.20883 1.98242,0.42188c27.19961,5.91653 52.17578,22.21899 67.51392,45.60327c14.1954,22.78878 18.33318,51.76175 12.59741,77.91626c-4.67506,18.52627 -15.2582,32.50155 -31.09375,43.05859c0.67805,0.47309 1.35609,0.94617 2.05469,1.43359c18.43232,13.09665 31.32649,28.08482 35.56372,50.75708c2.81386,20.71602 0.60872,41.97624 -8.61841,60.80933c-0.42926,0.89719 -0.85852,1.79438 -1.30078,2.71875c-13.58047,26.62538 -37.96879,43.90391 -65.84741,52.97583c-37.01691,11.48592 -79.94641,8.84464 -114.70874,-8.55591c-10.09877,-5.36576 -18.95186,-12.18067 -27.14307,-20.13867c-1.0248,-0.93199 -1.0248,-0.93199 -2.07031,-1.88281c-17.39774,-16.30612 -28.08288,-41.73268 -30.92969,-65.11719c0.495,-1.98 0.495,-1.98 1,-4c25.08,-4.62 50.16,-9.24 76,-14c1.88886,3.77773 2.78019,6.91658 3.75,11c3.51973,13.73013 9.95589,25.62233 22.1875,33.4375c14.00948,7.65333 29.84187,7.9276 45.02734,3.74609c9.47843,-3.49051 18.09089,-10.19082 23.10157,-19.07421c4.00477,-8.89951 4.73213,-20.32181 1.30859,-29.48438c-4.6469,-9.84239 -10.71778,-15.62309 -20.92578,-19.625c-8.64857,-2.79767 -17.48606,-3.14358 -26.51563,-3.31641c-1.22487,-0.02797 -1.22487,-0.02797 -2.47448,-0.05651c-3.00711,-0.06754 -6.01437,-0.12817 -9.02161,-0.18958c-10.11656,-0.21656 -10.11656,-0.21656 -20.4375,-0.4375c0,-20.13 0,-40.26 0,-61c22.1875,-0.25 22.1875,-0.25 29.1062,-0.29785c14.86665,-0.19368 28.3834,-1.10758 39.8938,-11.70215c7.03581,-8.26452 8.48102,-16.59339 8.3125,-27.27344c-0.77559,-9.24892 -5.27641,-17.32253 -12.24219,-23.41406c-11.53463,-8.45028 -25.23394,-9.73185 -39.07031,-8.3125c-11.30109,2.13395 -21.82362,8.10798 -28.50781,17.55859c-4.90901,8.03176 -7.50883,16.29274 -9.49219,25.44141c-0.36001,1.62254 -0.72072,3.24493 -1.08203,4.86719c-0.30602,1.37759 -0.61202,2.7552 -0.91797,4.13281c-25.06111,-4.34285 -50.02701,-9.1809 -75,-14c0.14862,-1.58004 0.29995,-3.15983 0.45239,-4.7395c0.08398,-0.87977 0.16795,-1.75954 0.25447,-2.66597c3.29447,-29.15909 19.36148,-56.78637 42.11492,-75.05742c14.00757,-10.53677 30.16336,-17.57248 47.17822,-21.53711c0.6969,-0.16371 1.3938,-0.32742 2.11182,-0.49609c21.25421,-4.72425 44.68644,-4.25638 65.88818,0.49609z"/>
  <path stroke="#000000" id="svg_7" fill="#ffffff" d="m2563,254c26.07,0 52.14,0 79,0c0.03738,10.33957 0.07477,20.67914 0.11328,31.33203c0.03028,6.55796 0.06131,13.1159 0.0957,19.67383c0.05443,10.40452 0.10585,20.809 0.13746,31.21362c0.02303,7.57867 0.0565,15.1572 0.10226,22.73577c0.02385,4.00945 0.04264,8.01878 0.04891,12.02831c0.00609,3.7815 0.02622,7.56267 0.05667,11.34405c0.01285,2.03392 0.01122,4.06792 0.009,6.10188c0.13667,13.46445 3.28339,26.79612 12.64766,36.97676c9.41474,8.38694 19.64845,11.17162 32.00781,10.875c12.77705,-0.95036 23.16116,-5.65542 31.96875,-15.03125c11.85267,-14.71366 14.09706,-34.21868 14.13135,-52.47583c0.01004,-1.25036 0.02009,-2.50071 0.03044,-3.78896c0.02535,-3.38345 0.04235,-6.76674 0.05543,-10.15026c0.01577,-3.55275 0.04252,-7.10542 0.06803,-10.65812c0.04653,-6.70732 0.0834,-13.41465 0.11667,-20.12205c0.0456,-9.07799 0.10638,-18.15587 0.16625,-27.23378c0.09373,-14.27361 0.1674,-28.54726 0.24433,-42.821c26.4,0 52.8,0 80,0c0,81.84 0,163.68 0,248c-26.4,0 -52.8,0 -80,0c-0.33,-6.93 -0.66,-13.86 -1,-21c-1.65,1.46437 -3.3,2.92875 -5,4.4375c-22.08898,18.72862 -50.49757,25.52407 -79,23.5625c-25.20669,-2.37992 -47.0397,-13.10229 -64,-32c-16.63938,-20.21507 -22.34978,-45.28207 -22.22705,-70.87598c0.00056,-1.66677 0.00024,-3.33354 -0.00089,-5.00032c-0.00057,-4.48886 0.01113,-8.97761 0.02515,-13.46644c0.01257,-4.7045 0.01368,-9.40899 0.01605,-14.1135c0.0062,-8.89257 0.02259,-17.7851 0.0427,-26.67765c0.02662,-12.02786 0.03735,-24.05574 0.04901,-36.08363c0.01876,-18.92753 0.05862,-37.85495 0.09503,-56.78248z"/>
  <path stroke="#000000" id="svg_8" fill="#ffffff" d="m1883,171c27.06,0 54.12,0 82,0c0,109.23 0,218.46 0,331c-27.06,0 -54.12,0 -82,0c0,-109.23 0,-218.46 0,-331z"/>
  <path id="svg_9" fill="#2563EB" d="m70,273c0,50.16 0,100.32 0,152c-18.18065,0 -32.7354,-5.16537 -45.98853,-17.7229c-15.27576,-15.31774 -18.38577,-34.05821 -18.38208,-54.66968c-0.00435,-2.70573 -0.04069,-5.40979 -0.07861,-8.11523c-0.12503,-19.29235 3.52508,-36.93636 17.21362,-51.33155c12.98435,-13.15263 28.68516,-20.16064 47.2356,-20.16064z"/>
  <path id="svg_10" fill="#2563EB" d="m648,276c21.24456,1.6342 37.34375,7.46136 52,23c12.07257,14.22127 14.37434,30.359 14.37061,48.33179c0.00435,2.33482 0.04074,4.66771 0.07861,7.00219c0.14405,19.10404 -4.5247,36.33026 -18.07813,50.45508c-13.66455,12.74158 -29.97119,18.21094 -48.37109,18.21094c0,-48.51 0,-97.02 0,-147z"/>
  <rect rx="50" id="svg_11" height="90.79778" width="165.00152" y="263.61049" x="159.29512" fill="#ffffff"/>
  <rect stroke="null" rx="45" id="svg_12" height="90.79778" width="165.00152" y="268.61049" x="402.68047" fill="#ffffff"/>
 </g>
</svg>