<svg width="117" height="39" xmlns="http://www.w3.org/2000/svg" version="1.1">

 <g>
  <title>Layer 1</title>
  <path id="svg_1" fill="#2563EB" d="m19,0c1.65,0 3.3,0 5,0c1.125,3.75 1.125,3.75 0,6c0.84305,0.12117 1.68609,0.24234 2.55469,0.36719c1.64355,0.25136 1.64355,0.25136 3.32031,0.50781c1.09055,0.16242 2.18109,0.32484 3.30469,0.49219c2.82031,0.63281 2.82031,0.63281 4.82031,2.63281c0.125,3.125 0.125,3.125 0,6c2.475,0.99 2.475,0.99 5,2c0,1.98 0,3.96 0,6c-1.65,0.66 -3.3,1.32 -5,2c0.06188,0.94875 0.12375,1.8975 0.1875,2.875c-0.09281,1.54688 -0.09281,1.54688 -0.1875,3.125c-3,2 -3,2 -6.9375,2.375c-4.01078,0.3879 -5.30746,1.67996 -8.0625,4.625c-2.75,0.25 -2.75,0.25 -5,0c0,-1.65 0,-3.3 0,-5c-1.15629,0.0348 -1.15629,0.0348 -2.33594,0.07031c-1.00289,0.01805 -2.00578,0.0361 -3.03906,0.05469c-0.99773,0.0232 -1.99547,0.04641 -3.02344,0.07031c-2.60156,-0.19531 -2.60156,-0.19531 -4.60156,-2.19531c-0.25879,-2.21484 -0.25879,-2.21484 -0.26563,-4.9375c-0.00257,-0.97711 -0.00515,-1.95422 -0.00781,-2.96094c0.00774,-1.02351 0.01547,-2.04703 0.02344,-3.10156c-0.00773,-1.02352 -0.01547,-2.04703 -0.02344,-3.10156c0.00258,-0.97711 0.00516,-1.95422 0.00781,-2.96094c0.00226,-0.89848 0.00452,-1.79695 0.00684,-2.72266c0.25879,-2.21484 0.25879,-2.21484 2.25879,-4.21484c2.05859,-0.34375 2.05859,-0.34375 4.4375,-0.5c3.5006,-0.23068 4.50476,-0.46151 7.5625,-2.5c-0.33,-0.99 -0.66,-1.98 -1,-3c0.33,-0.66 0.66,-1.32 1,-2zm-7,18c0,0.99 0,1.98 0,3c1.98,0 3.96,0 6,0c0,-0.99 0,-1.98 0,-3c-1.98,0 -3.96,0 -6,0zm12,0c0,0.99 0,1.98 0,3c1.98,0 3.96,0 6,0c0,-0.99 0,-1.98 0,-3c-1.98,0 -3.96,0 -6,0z"/>
  <path stroke="#000000" id="svg_2" fill="none" d="m98.78853,9.9375c1.45406,0.03094 1.45406,0.03094 2.9375,0.0625c1.34242,2.93343 2.67234,5.87236 4,8.8125c0.38156,0.83338 0.76313,1.66676 1.15625,2.52539c0.36094,0.80244 0.72188,1.60488 1.09375,2.43164c0.33516,0.73839 0.67031,1.47678 1.01563,2.23755c0.73437,1.99292 0.73437,1.99292 0.73437,4.99292c-1.98,0 -3.96,0 -6,0c-0.33,-1.32 -0.66,-2.64 -1,-4c-2.64,0 -5.28,0 -8,0c-0.33,1.32 -0.66,2.64 -1,4c-1.98,0 -3.96,0 -6,0c0.6981,-4.50276 2.28675,-8.55578 4,-12.75c0.40992,-1.02674 0.40992,-1.02674 0.82812,-2.07422c2.48915,-6.16185 2.48915,-6.16185 6.23438,-6.23828zm-1.0625,8.0625c-0.33,1.32 -0.66,2.64 -1,4c1.32,-0.33 2.64,-0.66 4,-1c-0.33,-0.99 -0.66,-1.98 -1,-3c-0.66,0 -1.32,0 -2,0z"/>
  <path stroke="#000000" id="svg_3" fill="none" d="m53,10c4.62,0 9.24,0 14,0c0,1.65 0,3.3 0,5c-2.97,0 -5.94,0 -9,0c0,0.66 0,1.32 0,2c0.9075,-0.0825 1.815,-0.165 2.75,-0.25c3.25,0.25 3.25,0.25 5.6875,1.8125c1.5625,2.4375 1.5625,2.4375 1.5625,6c-1,3.4375 -1,3.4375 -2.625,5.375c-3.35182,1.4995 -5.7448,1.51627 -9.375,1.0625c-2.4375,-1.75 -2.4375,-1.75 -4,-4c0,-1.32 0,-2.64 0,-4c1.65,0 3.3,0 5,0c0.33,0.66 0.66,1.32 1,2c0.99,0 1.98,0 3,0c0.33,-0.99 0.66,-1.98 1,-3c-2.97,0 -5.94,0 -9,0c0,-3.96 0,-7.92 0,-12z"/>
  <path stroke="#000000" id="svg_4" fill="none" d="m84,11c2.57517,3.86275 1.74003,5.55985 1,10c0.33,0.33 0.66,0.66 1,1c-0.25,3.4375 -0.25,3.4375 -1,7c-3.75047,2.50032 -5.55856,2.53604 -10,2c-2.9375,-2.375 -2.9375,-2.375 -5,-5c0,-0.66 0,-1.32 0,-2c1.98,-0.33 3.96,-0.66 6,-1c0,-1.65 0,-3.3 0,-5c-2.97,-0.495 -2.97,-0.495 -6,-1c0.92388,-3.10759 1.73798,-4.76792 4.1875,-6.9375c3.91172,-1.47776 6.01717,-0.63792 9.8125,0.9375zm-8,4c0,0.99 0,1.98 0,3c1.65,-0.33 3.3,-0.66 5,-1c-0.33,-0.66 -0.66,-1.32 -1,-2c-1.32,0 -2.64,0 -4,0zm0,8c0.33,0.99 0.66,1.98 1,3c1.32,-0.33 2.64,-0.66 4,-1c0,-0.66 0,-1.32 0,-2c-1.65,0 -3.3,0 -5,0z"/>
  <path stroke="#000000" id="svg_5" fill="none" d="m111.45205,10c1.65,0 3.3,0 5,0c0,6.93 0,13.86 0,21c-1.65,0 -3.3,0 -5,0c0,-6.93 0,-13.86 0,-21z"/>
  <path id="svg_6" fill="#2563EB" d="m4,16c0,3.3 0,6.6 0,10c-1.32,-0.66 -2.64,-1.32 -4,-2c0,-2.31 0,-4.62 0,-7c2,-1 2,-1 4,-1z"/>
  <path id="svg_7" fill="#2563EB" d="m25,19c4,1 4,1 4,1l-4,-1z"/>
  <path id="svg_8" fill="#2563EB" d="m13,19c4,1 4,1 4,1l-4,-1z"/>
 </g>
</svg>