<?xml version="1.0" encoding="UTF-8"?>
<svg version="1.1" xmlns="http://www.w3.org/2000/svg" width="117" height="39">
<path d="M0 0 C1.65 0 3.3 0 5 0 C6.125 3.75 6.125 3.75 5 6 C5.84304687 6.12117187 6.68609375 6.24234375 7.5546875 6.3671875 C9.19824219 6.61855469 9.19824219 6.61855469 10.875 6.875 C11.96554688 7.03742187 13.05609375 7.19984375 14.1796875 7.3671875 C17 8 17 8 19 10 C19.125 13.125 19.125 13.125 19 16 C21.475 16.99 21.475 16.99 24 18 C24 19.98 24 21.96 24 24 C22.35 24.66 20.7 25.32 19 26 C19.061875 26.94875 19.12375 27.8975 19.1875 28.875 C19.0946875 30.421875 19.0946875 30.421875 19 32 C16 34 16 34 12.0625 34.375 C8.05171946 34.76290396 6.75503944 36.05495784 4 39 C1.25 39.25 1.25 39.25 -1 39 C-1 37.35 -1 35.7 -1 34 C-2.15628906 34.03480469 -2.15628906 34.03480469 -3.3359375 34.0703125 C-4.33882812 34.08835938 -5.34171875 34.10640625 -6.375 34.125 C-7.37273438 34.14820313 -8.37046875 34.17140625 -9.3984375 34.1953125 C-12 34 -12 34 -14 32 C-14.25878906 29.78515625 -14.25878906 29.78515625 -14.265625 27.0625 C-14.26820312 26.08539062 -14.27078125 25.10828125 -14.2734375 24.1015625 C-14.26570312 23.07804687 -14.25796875 22.05453125 -14.25 21 C-14.25773438 19.97648437 -14.26546875 18.95296875 -14.2734375 17.8984375 C-14.27085938 16.92132812 -14.26828125 15.94421875 -14.265625 14.9375 C-14.26336914 14.03902344 -14.26111328 13.14054688 -14.25878906 12.21484375 C-14 10 -14 10 -12 8 C-9.94140625 7.65625 -9.94140625 7.65625 -7.5625 7.5 C-4.06190316 7.26931817 -3.05774155 7.03849437 0 5 C-0.33 4.01 -0.66 3.02 -1 2 C-0.67 1.34 -0.34 0.68 0 0 Z M-7 18 C-7 18.99 -7 19.98 -7 21 C-5.02 21 -3.04 21 -1 21 C-1 20.01 -1 19.02 -1 18 C-2.98 18 -4.96 18 -7 18 Z M5 18 C5 18.99 5 19.98 5 21 C6.98 21 8.96 21 11 21 C11 20.01 11 19.02 11 18 C9.02 18 7.04 18 5 18 Z " fill="#2563EB" transform="translate(19,0)"/>
<path d="M0 0 C1.4540625 0.0309375 1.4540625 0.0309375 2.9375 0.0625 C4.27992421 2.99592898 5.60984067 5.93486252 6.9375 8.875 C7.3190625 9.70837891 7.700625 10.54175781 8.09375 11.40039062 C8.4546875 12.20283203 8.815625 13.00527344 9.1875 13.83203125 C9.52265625 14.57042236 9.8578125 15.30881348 10.203125 16.06958008 C10.9375 18.0625 10.9375 18.0625 10.9375 21.0625 C8.9575 21.0625 6.9775 21.0625 4.9375 21.0625 C4.6075 19.7425 4.2775 18.4225 3.9375 17.0625 C1.2975 17.0625 -1.3425 17.0625 -4.0625 17.0625 C-4.3925 18.3825 -4.7225 19.7025 -5.0625 21.0625 C-7.0425 21.0625 -9.0225 21.0625 -11.0625 21.0625 C-10.364397 16.55973568 -8.77574524 12.50671829 -7.0625 8.3125 C-6.65257813 7.28576172 -6.65257813 7.28576172 -6.234375 6.23828125 C-3.74523247 0.07643332 -3.74523247 0.07643332 0 0 Z M-1.0625 8.0625 C-1.3925 9.3825 -1.7225 10.7025 -2.0625 12.0625 C-0.7425 11.7325 0.5775 11.4025 1.9375 11.0625 C1.6075 10.0725 1.2775 9.0825 0.9375 8.0625 C0.2775 8.0625 -0.3825 8.0625 -1.0625 8.0625 Z " fill="#000000" transform="translate(99.0625,9.9375)"/>
<path d="M0 0 C4.62 0 9.24 0 14 0 C14 1.65 14 3.3 14 5 C11.03 5 8.06 5 5 5 C5 5.66 5 6.32 5 7 C5.9075 6.9175 6.815 6.835 7.75 6.75 C11 7 11 7 13.4375 8.5625 C15 11 15 11 15 14.5625 C14 18 14 18 12.375 19.9375 C9.02317947 21.43699866 6.63019782 21.45377473 3 21 C0.5625 19.25 0.5625 19.25 -1 17 C-1 15.68 -1 14.36 -1 13 C0.65 13 2.3 13 4 13 C4.33 13.66 4.66 14.32 5 15 C5.99 15 6.98 15 8 15 C8.33 14.01 8.66 13.02 9 12 C6.03 12 3.06 12 0 12 C0 8.04 0 4.08 0 0 Z " fill="#000000" transform="translate(53,10)"/>
<path d="M0 0 C2.57516863 3.86275294 1.74002567 5.55984599 1 10 C1.33 10.33 1.66 10.66 2 11 C1.75 14.4375 1.75 14.4375 1 18 C-2.75047482 20.50031654 -4.55856266 20.53603554 -9 20 C-11.9375 17.625 -11.9375 17.625 -14 15 C-14 14.34 -14 13.68 -14 13 C-12.02 12.67 -10.04 12.34 -8 12 C-8 10.35 -8 8.7 -8 7 C-10.97 6.505 -10.97 6.505 -14 6 C-13.07612121 2.8924077 -12.26202347 1.23207793 -9.8125 -0.9375 C-5.90077657 -2.41526218 -3.79533233 -1.57542097 0 0 Z M-8 4 C-8 4.99 -8 5.98 -8 7 C-6.35 6.67 -4.7 6.34 -3 6 C-3.33 5.34 -3.66 4.68 -4 4 C-5.32 4 -6.64 4 -8 4 Z M-8 12 C-7.67 12.99 -7.34 13.98 -7 15 C-5.68 14.67 -4.36 14.34 -3 14 C-3 13.34 -3 12.68 -3 12 C-4.65 12 -6.3 12 -8 12 Z " fill="#000000" transform="translate(84,11)"/>
<path d="M0 0 C1.65 0 3.3 0 5 0 C5 6.93 5 13.86 5 21 C3.35 21 1.7 21 0 21 C0 14.07 0 7.14 0 0 Z " fill="#000000" transform="translate(112,10)"/>
<path d="M0 0 C0 3.3 0 6.6 0 10 C-1.32 9.34 -2.64 8.68 -4 8 C-4 5.69 -4 3.38 -4 1 C-2 0 -2 0 0 0 Z " fill="#2563EB" transform="translate(4,16)"/>
<path d="M0 0 C4 1 4 1 4 1 Z " fill="#2563EB" transform="translate(25,19)"/>
<path d="M0 0 C4 1 4 1 4 1 Z " fill="#2563EB" transform="translate(13,19)"/>
</svg>
